<svg width="24" height="24" viewBox="0 0 24 24" fill="none" xmlns="http://www.w3.org/2000/svg">
<path d="M21.5306 7.28104L9.53061 19.281C9.46096 19.3508 9.37824 19.4061 9.2872 19.4438C9.19615 19.4816 9.09855 19.501 8.99999 19.501C8.90143 19.501 8.80383 19.4816 8.71278 19.4438C8.62174 19.4061 8.53902 19.3508 8.46936 19.281L3.21936 14.031C3.07863 13.8903 2.99957 13.6994 2.99957 13.5004C2.99957 13.3014 3.07863 13.1105 3.21936 12.9698C3.3601 12.8291 3.55097 12.75 3.74999 12.75C3.94901 12.75 4.13988 12.8291 4.28061 12.9698L8.99999 17.6901L20.4694 6.21979C20.6101 6.07906 20.801 6 21 6C21.199 6 21.3899 6.07906 21.5306 6.21979C21.6713 6.36052 21.7504 6.55139 21.7504 6.75042C21.7504 6.94944 21.6713 7.14031 21.5306 7.28104Z" fill="#0A0A0A"/>
</svg>
